<svg xmlns="http://www.w3.org/2000/svg" xmlns:xlink="http://www.w3.org/1999/xlink" version="1.1" width="512px" height="512px" style="shape-rendering:geometricPrecision; text-rendering:geometricPrecision; image-rendering:optimizeQuality; fill-rule:evenodd; clip-rule:evenodd" fill="#ff5d00">
<g><path style="opacity:0.987" fill="##ff5d00" d="M 232.5,-0.5 C 247.833,-0.5 263.167,-0.5 278.5,-0.5C 368.144,10.3879 435.644,54.7213 481,132.5C 497.695,163.971 507.861,197.304 511.5,232.5C 511.5,247.833 511.5,263.167 511.5,278.5C 500.612,368.144 456.279,435.644 378.5,481C 347.03,497.695 313.697,507.861 278.5,511.5C 263.167,511.5 247.833,511.5 232.5,511.5C 142.856,500.612 75.3562,456.279 30,378.5C 13.3053,347.029 3.1386,313.696 -0.5,278.5C -0.5,263.167 -0.5,247.833 -0.5,232.5C 10.3879,142.856 54.7213,75.3562 132.5,30C 163.971,13.3053 197.304,3.1386 232.5,-0.5 Z M 136.5,103.5 C 161.381,101.748 175.714,113.082 179.5,137.5C 176.708,159.456 164.208,170.789 142,171.5C 117.477,169.979 105.477,156.979 106,132.5C 109.864,116.134 120.031,106.468 136.5,103.5 Z M 327.5,195.5 C 380.125,193.619 408.958,218.952 414,271.5C 414.5,313.832 414.667,356.165 414.5,398.5C 392.833,398.5 371.167,398.5 349.5,398.5C 349.667,361.165 349.5,323.832 349,286.5C 349.021,272.878 344.187,261.378 334.5,252C 314.506,242.301 297.673,246.134 284,263.5C 281.545,267.531 279.879,271.864 279,276.5C 278.5,317.165 278.333,357.832 278.5,398.5C 256.5,398.5 234.5,398.5 212.5,398.5C 213.472,332.162 213.472,265.829 212.5,199.5C 234.5,199.5 256.5,199.5 278.5,199.5C 278.334,209.172 278.5,218.839 279,228.5C 290.229,210.143 306.395,199.143 327.5,195.5 Z M 109.5,199.5 C 131.167,199.5 152.833,199.5 174.5,199.5C 174.5,265.833 174.5,332.167 174.5,398.5C 152.833,398.5 131.167,398.5 109.5,398.5C 109.5,332.167 109.5,265.833 109.5,199.5 Z"/></g>
</svg>